<svg xmlns="http://www.w3.org/2000/svg" xmlns:xlink="http://www.w3.org/1999/xlink" viewBox="0,0,256,256" width="144px" height="144px" fill-rule="nonzero"><g transform=""><g fill="none" fill-rule="nonzero" stroke="#20c997" stroke-width="5.33333" stroke-linecap="butt" stroke-linejoin="miter" stroke-miterlimit="10" stroke-dasharray="" stroke-dashoffset="0" font-family="none" font-weight="none" font-size="none" text-anchor="none" style="mix-blend-mode: normal"><path d="M45.831,252.49848c-23.37793,0 -42.32948,-18.95156 -42.32948,-42.32948v-164.33799c0,-23.37793 18.95156,-42.32948 42.32948,-42.32948h164.33799c23.37793,0 42.32948,18.95156 42.32948,42.32948v164.33799c0,23.37793 -18.95156,42.32948 -42.32948,42.32948z" id="shape"></path></g><g transform="translate(-0.31042,0.28963) skewX(0)" fill="#d5e3d4" fill-rule="nonzero" stroke="#d5e3d4" stroke-width="16" stroke-linecap="butt" stroke-linejoin="round" stroke-miterlimit="10" stroke-dasharray="" stroke-dashoffset="0" font-family="none" font-weight="none" font-size="none" text-anchor="none" style="mix-blend-mode: normal"><path d="M13.33333,222.39216c0,-31.95831 19.85655,-63.95081 45.33333,-67.93702v-124.1022c0,-7.19333 4.77333,-13.01961 10.66667,-13.01961h106.66667c5.89333,0 10.66667,5.82627 10.66667,13.01961l0,117.17647l45.33333,-55.33333c0,31.95831 -19.85655,58.25209 -45.33333,61.50466v71.94632c0,7.19333 -4.77333,13.01961 -10.66667,13.01961h-106.66667c-5.89333,0 -10.66667,-5.82627 -10.66667,-13.01961l0,-64.4128z" id="strokeMainSVG"></path></g><g fill="none" fill-rule="nonzero" stroke="none" stroke-width="none" stroke-linecap="none" stroke-linejoin="miter" stroke-miterlimit="10" stroke-dasharray="" stroke-dashoffset="0" font-family="none" font-weight="none" font-size="none" text-anchor="none" style="mix-blend-mode: normal"><g transform="translate(-5.64375,1.62296) scale(5.33333,5.33333) skewX(0)"><path d="M3.5,34.5c0,-5.247 4.253,-10.5 9.5,-10.5M44.5,14.5c0,5.247 -4.253,9.5 -9.5,9.5M19.5,36.5v8M28.5,36.5v8" fill="none" stroke="#00796b" stroke-width="3" stroke-linecap="round"></path><path d="M34,37h-20c-1.105,0 -2,-0.895 -2,-2v-30c0,-1.105 0.895,-2 2,-2h20c1.105,0 2,0.895 2,2v30c0,1.105 -0.895,2 -2,2z" fill="#00bfa5" stroke="none" stroke-width="1" stroke-linecap="butt"></path><path d="M32,19h-16c-0.552,0 -1,-0.448 -1,-1v-11c0,-0.552 0.448,-1 1,-1h16c0.552,0 1,0.448 1,1v11c0,0.552 -0.448,1 -1,1z" fill="#e0f2f1" stroke="none" stroke-width="1" stroke-linecap="butt"></path><path d="M18.5,9c-0.82843,0 -1.5,0.67157 -1.5,1.5c0,0.82843 0.67157,1.5 1.5,1.5c0.82843,0 1.5,-0.67157 1.5,-1.5c0,-0.82843 -0.67157,-1.5 -1.5,-1.5zM29.5,9c-0.82843,0 -1.5,0.67157 -1.5,1.5c0,0.82843 0.67157,1.5 1.5,1.5c0.82843,0 1.5,-0.67157 1.5,-1.5c0,-0.82843 -0.67157,-1.5 -1.5,-1.5z" fill="#212121" stroke="none" stroke-width="1" stroke-linecap="butt"></path><path d="M26.5,13c0,1.381 -1.119,2.5 -2.5,2.5c-1.381,0 -2.5,-1.119 -2.5,-2.5" fill="none" stroke="#212121" stroke-width="1" stroke-linecap="butt"></path><path d="M15,21h12v2h-12zM32,21c-0.55228,0 -1,0.44772 -1,1c0,0.55228 0.44772,1 1,1c0.55228,0 1,-0.44772 1,-1c0,-0.55228 -0.44772,-1 -1,-1z" fill="#212121" stroke="none" stroke-width="1" stroke-linecap="butt"></path><path d="M33,26c-0.55228,0 -1,0.44772 -1,1c0,0.55228 0.44772,1 1,1c0.55228,0 1,-0.44772 1,-1c0,-0.55228 -0.44772,-1 -1,-1z" fill="#76ff03" stroke="none" stroke-width="1" stroke-linecap="butt"></path><path d="M17,25h2v6h-2z" fill="#ffea00" stroke="none" stroke-width="1" stroke-linecap="butt"></path><path transform="translate(-10,46) rotate(-90)" d="M17,25h2v6h-2z" fill="#ffea00" stroke="none" stroke-width="1" stroke-linecap="butt"></path><path d="M18,35h-2c-0.552,0 -1,-0.448 -1,-1v0c0,-0.552 0.448,-1 1,-1h2c0.552,0 1,0.448 1,1v0c0,0.552 -0.448,1 -1,1zM24,35h-2c-0.552,0 -1,-0.448 -1,-1v0c0,-0.552 0.448,-1 1,-1h2c0.552,0 1,0.448 1,1v0c0,0.552 -0.448,1 -1,1z" fill="#212121" stroke="none" stroke-width="1" stroke-linecap="butt"></path><path d="M30.5,30c-1.38071,0 -2.5,1.11929 -2.5,2.5c0,1.38071 1.11929,2.5 2.5,2.5c1.38071,0 2.5,-1.11929 2.5,-2.5c0,-1.38071 -1.11929,-2.5 -2.5,-2.5z" fill="#ff3d00" stroke="none" stroke-width="1" stroke-linecap="butt"></path><path d="M28,25l-2,3h4z" fill="#84ffff" stroke="none" stroke-width="1" stroke-linecap="butt"></path></g></g><g fill="none" fill-rule="nonzero" stroke="none" stroke-width="none" stroke-linecap="butt" stroke-linejoin="none" stroke-miterlimit="10" stroke-dasharray="" stroke-dashoffset="0" font-family="none" font-weight="none" font-size="none" text-anchor="none" style="mix-blend-mode: normal"><path d="M225.15167,31.45759l-3.95,22.75h-2.94l1.83,-10.52h-11.11l-1.83,10.52h-2.94l3.96,-22.75h2.93l-1.7,9.78h11.09l1.71,-9.78zM232.06167,37.29759l-2.94,16.91h-2.81l2.93,-16.91zM231.45167,31.12759c0.48,-0.02 0.87667,0.12333 1.19,0.43c0.32,0.30667 0.48,0.71 0.48,1.21c-0.01333,0.49333 -0.17333,0.89667 -0.48,1.21c-0.30667,0.30667 -0.70333,0.47333 -1.19,0.5c-0.49333,0.02 -0.89667,-0.12333 -1.21,-0.43c-0.31333,-0.3 -0.46333,-0.69333 -0.45,-1.18c0.01333,-0.49333 0.17,-0.9 0.47,-1.22c0.3,-0.32667 0.69667,-0.5 1.19,-0.52z" id="strokeMainSVG" fill="#d5e3d4" stroke="#d5e3d4" stroke-width="16" stroke-linejoin="round"></path><g id="text" fill="#000000" stroke="none" stroke-width="1" stroke-linejoin="miter"><path d="M225.15167,31.45759l-3.95,22.75h-2.94l1.83,-10.52h-11.11l-1.83,10.52h-2.94l3.96,-22.75h2.93l-1.7,9.78h11.09l1.71,-9.78zM232.06167,37.29759l-2.94,16.91h-2.81l2.93,-16.91zM231.45167,31.12759v0c0.48,-0.02 0.87667,0.12333 1.19,0.43c0.32,0.30667 0.48,0.71 0.48,1.21v0c-0.01333,0.49333 -0.17333,0.89667 -0.48,1.21c-0.30667,0.30667 -0.70333,0.47333 -1.19,0.5c-0.49333,0.02 -0.89667,-0.12333 -1.21,-0.43c-0.31333,-0.3 -0.46333,-0.69333 -0.45,-1.18c0.01333,-0.49333 0.17,-0.9 0.47,-1.22c0.3,-0.32667 0.69667,-0.5 1.19,-0.52z"></path></g></g></g></svg>